<svg id="Layer_1" data-name="Layer 1" xmlns="http://www.w3.org/2000/svg" xmlns:xlink="http://www.w3.org/1999/xlink" viewBox="0 0 1600 900"><defs><style>.cls-1,.cls-13,.cls-14,.cls-23,.cls-4,.cls-6,.cls-8,.cls-9{fill:none;}.cls-2{clip-path:url(#clip-path);}.cls-3{clip-path:url(#clip-path-2);}.cls-23,.cls-4,.cls-8,.cls-9{stroke:#fff;}.cls-13,.cls-14,.cls-23,.cls-4,.cls-6,.cls-8,.cls-9{stroke-miterlimit:10;stroke-width:1000px;}.cls-4{stroke-dasharray:1.39 4.16;}.cls-5{clip-path:url(#clip-path-3);}.cls-13,.cls-14,.cls-6{stroke:#dcddde;}.cls-23,.cls-6{stroke-dasharray:1.67 4.17;}.cls-7{clip-path:url(#clip-path-4);}.cls-14,.cls-8{stroke-dasharray:1.39 4.17;}.cls-10{clip-path:url(#clip-path-5);}.cls-11{fill:#dcddde;}.cls-12{clip-path:url(#clip-path-6);}.cls-15{fill:#fff;}.cls-16{clip-path:url(#clip-path-7);}.cls-17{clip-path:url(#clip-path-8);}.cls-18{clip-path:url(#clip-path-9);}.cls-19{clip-path:url(#clip-path-10);}.cls-20{clip-path:url(#clip-path-11);}.cls-21{clip-path:url(#clip-path-12);}.cls-22{clip-path:url(#clip-path-13);}.cls-24{clip-path:url(#clip-path-14);}.cls-25{clip-path:url(#clip-path-15);}.cls-26{clip-path:url(#clip-path-16);}.cls-27{clip-path:url(#clip-path-17);}.cls-28{clip-path:url(#clip-path-18);}.cls-29{clip-path:url(#clip-path-19);}.cls-30{clip-path:url(#clip-path-20);}.cls-31{clip-path:url(#clip-path-21);}</style><clipPath id="clip-path"><rect class="cls-1" x="1973.87" y="689.36" width="1600" height="900"/></clipPath><clipPath id="clip-path-2"><polygon class="cls-1" points="1973.87 1579.23 1973.87 618.68 2521.09 680.33 1973.87 1579.23"/></clipPath><clipPath id="clip-path-3"><polygon class="cls-1" points="1957.2 627.55 2364.15 940.75 1940.63 932.54 1957.2 627.55"/></clipPath><clipPath id="clip-path-4"><polygon class="cls-1" points="2686.82 1731.07 1973.87 1230.54 2724.17 1217.7 2686.82 1731.07"/></clipPath><clipPath id="clip-path-5"><rect class="cls-1" width="1600" height="900"/></clipPath><clipPath id="clip-path-6"><polygon class="cls-1" points="1600 899.31 1232.67 929.89 1379.96 782.59 1600 899.31"/></clipPath><clipPath id="clip-path-7"><polygon class="cls-1" points="0 889.87 0 -70.68 547.22 -9.03 0 889.87"/></clipPath><clipPath id="clip-path-8"><polygon class="cls-1" points="1190.69 682.01 1206.69 907.64 787.37 899.31 1190.69 682.01"/></clipPath><clipPath id="clip-path-9"><polygon class="cls-1" points="-16.67 -61.81 390.28 251.39 -33.24 243.18 -16.67 -61.81"/></clipPath><clipPath id="clip-path-10"><polygon class="cls-1" points="712.95 1041.71 0 541.18 750.3 528.34 712.95 1041.71"/></clipPath><clipPath id="clip-path-11"><polygon class="cls-1" points="1685.26 477.3 1190.69 682.01 1137.28 -70.68 1685.26 477.3"/></clipPath><clipPath id="clip-path-12"><polygon class="cls-1" points="-16.67 899.31 375.9 1004.86 576.39 899.31 -16.67 899.31"/></clipPath><clipPath id="clip-path-13"><polygon class="cls-1" points="770 257.47 1142.25 -0.69 859.72 -6.08 770 257.47"/></clipPath><clipPath id="clip-path-14"><polygon class="cls-1" points="1142.25 -0.69 547.22 -9.03 887.44 176.02 1142.25 -0.69"/></clipPath><clipPath id="clip-path-15"><polygon class="cls-1" points="1622.22 945.74 1374.06 606.11 1685.26 477.3 1622.22 945.74"/></clipPath><clipPath id="clip-path-16"><polygon class="cls-1" points="484.3 637.06 309.58 382.58 463.85 126.78 484.3 637.06"/></clipPath><clipPath id="clip-path-17"><polygon class="cls-1" points="471.36 314.28 390.28 251.39 463.85 126.78 471.36 314.28"/></clipPath><clipPath id="clip-path-18"><polygon class="cls-1" points="1142.25 -0.69 1051.92 760.74 773.38 255.13 1142.25 -0.69"/></clipPath><clipPath id="clip-path-19"><polygon class="cls-1" points="1600 -0.69 1600 392.04 1303.63 95.67 1600 -0.69"/></clipPath><clipPath id="clip-path-20"><polygon class="cls-1" points="575.69 908.34 750.3 528.34 1232.67 900 575.69 908.34"/></clipPath><clipPath id="clip-path-21"><polygon class="cls-1" points="808.33 1109.03 413.61 534.1 750.3 528.34 808.33 1109.03"/></clipPath></defs><title>education-bg-subfooter</title><g class="cls-2"><g class="cls-3"><line class="cls-4" x1="1816.7" y1="1568.91" x2="2558.87" y2="629.73"/></g><g class="cls-5"><line class="cls-6" x1="1809.4" y1="482.62" x2="2225.38" y2="1384.34"/></g><g class="cls-7"><line class="cls-8" x1="2773.59" y1="1553.31" x2="1797.92" y2="990"/><line class="cls-9" x1="1796.11" y1="988.96" x2="1795.51" y2="988.61"/></g></g><g class="cls-10"><polygon class="cls-11" points="547.22 -9.03 1444.44 -9.03 1600.1 563.66 547.22 -9.03"/><g class="cls-12"><line class="cls-13" x1="1170.6" y1="1046.23" x2="1170.94" y2="1045.63"/><line class="cls-14" x1="1173.03" y1="1042.02" x2="1736.34" y2="66.34"/><line class="cls-13" x1="1737.38" y1="64.54" x2="1737.73" y2="63.93"/></g><polygon class="cls-11" points="0 899.31 0 480.15 576.39 899.31 0 899.31"/><polygon class="cls-11" points="-16.67 -61.81 629.48 -6.08 1051.92 760.74 -16.67 -61.81"/><polygon class="cls-11" points="-430.09 237.73 217.13 247.92 808.33 1109.03 -430.09 237.73"/><polygon class="cls-11" points="1303.63 95.67 1600 0 1209.72 0 1303.63 95.67"/><polygon class="cls-15" points="1190.69 682.01 1600 900 1600 512.59 1190.69 682.01"/><polygon class="cls-15" points="1303.63 95.67 1600 392.04 1600 0 1303.63 95.67"/><g class="cls-16"><line class="cls-9" x1="-160.18" y1="883.36" x2="-159.75" y2="882.81"/><line class="cls-4" x1="-157.17" y1="879.55" x2="585" y2="-59.63"/><line class="cls-9" x1="586.3" y1="-61.26" x2="586.73" y2="-61.81"/></g><g class="cls-17"><line class="cls-6" x1="761.92" y1="315.48" x2="1177.9" y2="1217.21"/></g><g class="cls-18"><line class="cls-6" x1="-164.47" y1="-206.74" x2="251.52" y2="694.98"/></g><g class="cls-19"><line class="cls-9" x1="803.94" y1="866.38" x2="803.34" y2="866.03"/><line class="cls-8" x1="799.73" y1="863.95" x2="-175.95" y2="300.64"/><line class="cls-9" x1="-177.76" y1="299.6" x2="-178.36" y2="299.25"/></g><polygon class="cls-11" points="1685.26 477.3 1209.89 952.67 1137.28 -70.68 1685.26 477.3"/><g class="cls-20"><line class="cls-9" x1="1192.51" y1="999.62" x2="1192.69" y2="998.95"/><line class="cls-8" x1="1193.77" y1="994.92" x2="1485.36" y2="-93.3"/><line class="cls-9" x1="1485.9" y1="-95.32" x2="1486.08" y2="-95.99"/></g><g class="cls-21"><line class="cls-6" x1="-1.56" y1="969.8" x2="900.17" y2="553.81"/></g><g class="cls-22"><line class="cls-23" x1="991.53" y1="568.46" x2="575.55" y2="-333.27"/></g><g class="cls-24"><line class="cls-23" x1="616.14" y1="408.09" x2="959.61" y2="-523.68"/></g><g class="cls-25"><line class="cls-6" x1="1769.57" y1="1065.68" x2="1353.58" y2="163.95"/></g><g class="cls-26"><line class="cls-6" x1="702.9" y1="843.46" x2="286.91" y2="-58.27"/></g><g class="cls-27"><line class="cls-23" x1="702.9" y1="843.46" x2="286.91" y2="-58.27"/></g><g class="cls-28"><line class="cls-13" x1="1449.09" y1="447.79" x2="1448.42" y2="447.97"/><line class="cls-14" x1="1444.39" y1="449.05" x2="356.16" y2="740.64"/><line class="cls-13" x1="354.15" y1="741.18" x2="353.48" y2="741.36"/></g><g class="cls-29"><line class="cls-13" x1="1834.16" y1="-8.07" x2="1833.66" y2="-7.59"/><line class="cls-14" x1="1830.68" y1="-4.67" x2="1024.84" y2="782.66"/><line class="cls-13" x1="1023.35" y1="784.12" x2="1022.86" y2="784.6"/></g><g class="cls-30"><line class="cls-13" x1="283.44" y1="1215.2" x2="283.97" y2="1214.75"/><line class="cls-14" x1="287.16" y1="1212.06" x2="1147.58" y2="484.78"/><line class="cls-13" x1="1149.17" y1="483.43" x2="1149.7" y2="482.98"/></g><g class="cls-31"><line class="cls-6" x1="1186.29" y1="471.28" x2="200.17" y2="588.43"/></g></g></svg>